# xmcd
#
# Track frame offsets:
#	150
#	10497
#	22827
#	35842
#	48500
#	59540
#	71305
#	82350
#	94100
#	106270
#	115980
#	125107
#	135027
#	145440
#	157997
#	171877
#	181447
#	195637
#	209602
#	221172
#	234620
#	246702
#
# Disc length: 3476 seconds
#
# Revision: 4
# Processed by: cddbd v1.5.1PL0 Copyright (c) Steve Scherf et al.
# Submitted via: MusicWizard 7.0.2
#
DISCID=500d9216
DTITLE=George Jones - The Essential George Jones - CD 1
DYEAR=1995
DGENRE=Country
TTITLE0=Why, Baby, Why
TTITLE1=Just One More
TTITLE2=Color Of The Blues
TTITLE3=White Lightning
TTITLE4=Who Shot Sam
TTITLE5=The Window Up Above
TTITLE6=Tender Years
TTITLE7=She Thinks I Still Care
TTITLE8=We Must Have Been Out Of Our Minds (With Melba Montgomery)
TTITLE9=The Race Is On
TTITLE10=Love Bug
TTITLE11=I'm A People
TTITLE12=Walk Through This World With Me
TTITLE13=If My Heart Had Windows
TTITLE14=A Good Year For The Roses
TTITLE15=We Can Make It
TTITLE16=The Ceremony (With Tammy Wynette)
TTITLE17=Loving You Could Never Be Better
TTITLE18=A Picture Of Me (Without You)
TTITLE19=We're Gonna Hold On (With Tammy Wynette)
TTITLE20=Once You've Had The Best
TTITLE21=The Grand Tour
EXTD=
EXTT0=
EXTT1=
EXTT2=
EXTT3=
EXTT4=
EXTT5=
EXTT6=
EXTT7=
EXTT8=With Melba Montgomery
EXTT9=
EXTT10=
EXTT11=
EXTT12=
EXTT13=
EXTT14=
EXTT15=
EXTT16=With Tammy Wynette
EXTT17=
EXTT18=
EXTT19=With Tammy Wynette
EXTT20=
EXTT21=
PLAYORDER=
